<svg width="63" height="58" viewBox="0 0 63 58" fill="none" xmlns="http://www.w3.org/2000/svg">
<path d="M59.3226 14.6637C55.089 10.4301 48.2384 10.4301 44.0048 14.6637L15.9863 42.6822L31.3041 58L59.3226 29.9815C63.5562 25.7479 63.5562 18.8973 59.3226 14.6637Z" fill="#AF2C50"/>
<path d="M3.17517 14.6637C7.40873 10.4301 14.2594 10.4301 18.493 14.6637L46.5114 42.6822L31.1936 58L3.17517 29.9815C-1.05839 25.7479 -1.05839 18.8973 3.17517 14.6637Z" fill="#DF3F67"/>
<path d="M22.8059 8.42864C22.8059 3.77172 26.5776 0 31.2345 0C35.8915 0 39.6632 3.77172 39.6632 8.42864C39.6632 13.0856 35.8915 16.8573 31.2345 16.8573C26.5776 16.8573 22.8059 13.0856 22.8059 8.39016" fill="#DF3F67"/>
</svg>
