<svg width="112" height="63" viewBox="0 0 112 63" fill="none" xmlns="http://www.w3.org/2000/svg">
<path d="M24.8405 30.8502C24.8247 29.9044 24.4983 28.9917 23.9142 28.2598C23.33 27.5278 22.5223 27.0193 21.6216 26.8164C17.0337 32.1437 16.594 40.8495 16.2788 43.777C16.1211 47.232 19.4894 47.3257 19.4894 47.3257C23.3721 46.347 22.808 43.2749 22.808 43.2749C22.6666 43.1413 22.5583 42.9752 22.492 42.7902C22.4256 42.6053 22.4031 42.4068 22.4264 42.2111C22.4678 41.4112 24.8405 31.6587 24.8405 30.8502Z" fill="black" fill-opacity="0.4"/>
<path d="M76.3264 27.1218C77.1561 27.1218 78.923 25.7091 78.923 24.5688C78.923 24.0412 76.9733 19.7266 74.3354 19.7266C73.8852 19.7855 73.4655 19.9896 73.1359 20.3092C72.8064 20.6289 72.5844 21.0477 72.502 21.5051C72.502 22.7987 73.6053 27.1218 76.3264 27.1218Z" fill="black" fill-opacity="0.4"/>
<path d="M25.9113 24.0331C26.7409 24.0331 28.1927 23.4799 28.1927 22.331C28.1927 21.8034 26.1104 16.6719 23.4722 16.6719C23.0223 16.7308 22.6022 16.9349 22.2727 17.2545C21.9432 17.5742 21.7212 17.993 21.6387 18.4504C21.6387 19.761 21.9291 24.0331 25.9113 24.0331Z" fill="black" fill-opacity="0.4"/>
<path d="M34.0737 0.476854C32.987 -0.782633 19.0823 -2.39104 7.08591 36.3979C7.06885 36.453 7.03513 36.5011 6.98964 36.5352C6.94415 36.5693 6.88924 36.5878 6.83287 36.5878C6.7765 36.5878 6.72159 36.5693 6.6761 36.5352C6.63061 36.5011 6.59689 36.453 6.57983 36.3979C4.69657 26.1006 5.5262 14.4674 5.28561 12.5697C4.68827 7.85507 0.830501 9.36138 0.830501 9.36138C-0.911725 13.0547 0.199981 43.0101 3.11198 46.9163C4.84591 47.6737 9.8071 47.4099 10.8607 46.2014C10.8607 46.2014 17.813 8.32317 34.0737 0.476854Z" fill="black" fill-opacity="0.4"/>
<path d="M108.682 28.1858C108.558 28.2082 108.44 28.2619 108.34 28.3421C108.24 28.4222 108.161 28.5264 108.11 28.6453C103.904 36.432 100.096 42.6359 96.8604 42.8911C96.5701 42.9222 96.2798 42.8339 96.0528 42.6456C95.8252 42.4575 95.6807 42.1846 95.649 41.887V41.7848C95.2512 38.7893 97.9885 31.3941 97.7977 29.2836C97.7233 28.5006 97.3416 28.5857 96.8523 28.2709C96.6622 28.4361 96.4898 28.6215 96.338 28.824C96.3004 28.8699 96.2496 28.9028 96.1928 28.918C96.1368 28.9333 96.0772 28.9302 96.0226 28.9091C94.1356 28.2389 92.1911 27.7545 90.2148 27.4624C91.7084 23.2073 94.8194 14.1441 94.8194 13.3357C94.8194 11.3188 93.3759 10.638 90.9369 9.93164C87.0044 17.0376 84.5073 26.705 84.2995 27.4283C83.0306 28.6027 81.106 27.522 80.7324 29.8197C81.6866 30.8579 83.4786 31.7089 83.4786 32.5174C83.4786 33.3258 82.1346 36.5937 82.6652 47.3249C83.3541 47.5972 86.1828 44.4995 86.2742 43.572C87.0538 35.2491 89.1118 32.2621 89.1118 32.2621C90.8279 32.3218 92.5462 32.2278 94.2468 31.9813C94.2601 31.9773 94.2741 31.9775 94.2866 31.9819C94.2999 31.9863 94.311 31.9945 94.3191 32.0057C94.3272 32.0168 94.3316 32.0302 94.3323 32.0441C94.3323 32.058 94.3286 32.0717 94.322 32.0834C93.8652 33.0365 91.1027 38.8914 91.0858 41.5636C91.0858 45.0612 92.1726 47.0355 95.0102 47.2994C95.6115 47.3685 96.2179 47.3685 96.8192 47.2994C100.139 46.7895 103.156 45.0299 105.281 42.3635C105.316 42.3199 105.366 42.2903 105.42 42.2796C105.475 42.2688 105.531 42.2777 105.58 42.3048C105.629 42.3318 105.667 42.3753 105.688 42.4278C105.709 42.4804 105.712 42.5388 105.696 42.5933C101.547 57.8263 93.5004 61.6303 90.1154 62.4643C90.2318 63.528 96.0801 63.2217 100.162 59.673C104.675 55.565 108.003 50.267 109.786 44.3548C110.234 42.7975 110.665 41.1891 110.997 39.5467C111.604 36.584 111.94 33.5697 112.001 30.543C112.001 30.0324 109.263 28.1858 108.682 28.1858Z" fill="black" fill-opacity="0.4"/>
<path d="M80.8651 45.2657H80.7155C76.36 45.2657 81.4789 29.5051 75.3395 30.3561C74.232 30.625 73.1679 31.0548 72.1789 31.6326C72.0658 31.6931 71.9711 31.7845 71.9051 31.8964C69.7133 35.5584 67.1613 38.9803 64.2891 42.1085C64.2058 42.2006 64.1005 42.2689 63.9837 42.3067C63.8667 42.3444 63.7424 42.3502 63.6225 42.3236C63.5028 42.297 63.3919 42.2388 63.3008 42.1549C63.2096 42.0708 63.1414 41.964 63.1027 41.8446C60.8627 34.4494 70.7104 12.6807 70.8515 12.2041C71.5981 9.7532 68.3626 8.58733 66.7034 8.40865C63.1442 13.6168 57.1626 29.9987 57.7599 43.0616C57.7643 43.1444 57.7435 43.2266 57.7004 43.2967C57.6573 43.3668 57.5941 43.4215 57.5194 43.453C56.5155 43.8786 52.8734 45.2402 53.3048 42.1851C53.4126 41.3851 55.1383 36.6961 55.1383 35.8877C55.1383 35.36 52.9564 32.3389 51.3137 32.3389C50.6085 32.3389 44.461 40.3469 42.3786 42.2191C42.2958 42.2927 42.1973 42.3455 42.0911 42.3733C41.9848 42.4011 41.8738 42.4031 41.7666 42.3791C41.6596 42.3552 41.5594 42.3059 41.474 42.2353C41.3887 42.1647 41.3206 42.0746 41.2752 41.9723C40.1801 39.4023 42.893 32.4325 50.6085 29.7859C51.3144 29.1618 51.977 28.4878 52.5914 27.769C52.6495 27.6785 52.6878 27.576 52.7035 27.4687C52.7193 27.3614 52.7121 27.2519 52.6826 27.1478C52.5663 26.8721 52.3573 26.6486 52.0935 26.518C47.7878 24.4756 38.2055 24.765 36.5712 24.5352C37.7741 18.9016 41.549 9.87237 41.6485 8.99584C41.8061 7.6427 40.5119 6.32366 37.8488 5.5918C34.6725 11.6405 32.0026 17.955 29.8678 24.4671C29.1543 25.233 28.0841 24.9266 27.3789 27.0882C27.3789 28.0669 28.9303 29.1561 28.9303 30.0412C28.9303 30.9263 27.4619 35.6323 28.026 47.3507C30.1499 47.4784 32.4396 44.0317 32.589 43.0276C33.1756 38.5542 34.0711 34.1292 35.2686 29.7859C38.112 29.7858 40.9524 29.5981 43.7724 29.2242C43.7913 29.2194 43.8113 29.2216 43.8288 29.2304C43.8464 29.2391 43.8603 29.254 43.8683 29.2723C43.8761 29.2906 43.8775 29.3111 43.8722 29.3303C43.8668 29.3496 43.8549 29.3662 43.8387 29.3774C39.6906 32.9516 35.8079 36.4153 35.8992 43.0956C35.8992 45.8019 38.7282 47.3507 40.3377 47.3507C43.1004 47.3507 45.9377 44.7977 47.29 43.2489C47.3432 43.1698 47.4187 43.1096 47.5064 43.0762C47.5941 43.0427 47.6897 43.0377 47.7802 43.0618C47.8708 43.086 47.9519 43.1381 48.0126 43.2111C48.0733 43.2842 48.1107 43.3746 48.1196 43.4701C48.2825 44.5642 48.8276 45.5603 49.6533 46.2726C50.4791 46.9851 51.5292 47.3652 52.6079 47.3422C54.458 47.3422 57.1875 45.555 58.2328 44.9679C58.277 44.9418 58.3287 44.9327 58.3788 44.942C58.4289 44.9514 58.4742 44.9786 58.5066 45.0189C59.2035 45.8699 60.6055 47.3507 61.9413 47.3507C65.9401 47.3507 69.997 41.3936 72.2535 37.7002C72.2976 37.6293 72.3612 37.5732 72.4363 37.5392C72.5114 37.5053 72.5946 37.495 72.6754 37.5096C72.7562 37.5241 72.831 37.563 72.8903 37.6211C72.9496 37.6794 72.9908 37.7543 73.0085 37.8364C73.8378 41.7851 73.8378 47.3592 77.7121 47.3592C78.9161 47.3173 80.1061 47.0818 81.2387 46.6613C81.4192 46.6106 81.5725 46.4884 81.6646 46.3216C81.7574 46.1548 81.7817 45.9571 81.7324 45.7721C81.6823 45.587 81.5636 45.4296 81.4008 45.3347C81.2379 45.2397 81.0456 45.2149 80.8651 45.2657Z" fill="black" fill-opacity="0.4"/>
</svg>
